<?xml version="1.0" encoding="UTF-8" standalone="no"?>
<!DOCTYPE svg PUBLIC "-//W3C//DTD SVG 1.1//EN"
 "http://www.w3.org/Graphics/SVG/1.1/DTD/svg11.dtd">
<!-- Generated by graphviz version 2.38.0 (20140413.2041)
 -->
<!-- Title: G Pages: 1 -->
<svg width="935pt" height="606pt"
 viewBox="0.00 0.00 935.48 606.00" xmlns="http://www.w3.org/2000/svg" xmlns:xlink="http://www.w3.org/1999/xlink">
<g id="graph0" class="graph" transform="scale(1 1) rotate(0) translate(4 602)">
<title>G</title>
<polygon fill="white" stroke="none" points="-4,4 -4,-602 931.479,-602 931.479,4 -4,4"/>
<g id="clust1" class="cluster"><title>cluster_Global</title>
<path fill="none" stroke="gray" d="M20,-98C20,-98 907.479,-98 907.479,-98 913.479,-98 919.479,-104 919.479,-110 919.479,-110 919.479,-578 919.479,-578 919.479,-584 913.479,-590 907.479,-590 907.479,-590 20,-590 20,-590 14,-590 8,-584 8,-578 8,-578 8,-110 8,-110 8,-104 14,-98 20,-98"/>
<text text-anchor="middle" x="463.739" y="-577.2" font-family="Times,serif" font-size="11.00" fill="gray">Global</text>
</g>
<g id="clust2" class="cluster"><title>cluster_\BoardingCards</title>
<path fill="none" stroke="gray" d="M28,-106C28,-106 899.479,-106 899.479,-106 905.479,-106 911.479,-112 911.479,-118 911.479,-118 911.479,-550 911.479,-550 911.479,-556 905.479,-562 899.479,-562 899.479,-562 28,-562 28,-562 22,-562 16,-556 16,-550 16,-550 16,-118 16,-118 16,-112 22,-106 28,-106"/>
<text text-anchor="middle" x="463.739" y="-549.2" font-family="Times,serif" font-size="11.00" fill="gray">BoardingCards</text>
</g>
<g id="clust3" class="cluster"><title>cluster_\BoardingCards\Exceptions</title>
<path fill="none" stroke="gray" d="M727.479,-462C727.479,-462 884.479,-462 884.479,-462 890.479,-462 896.479,-468 896.479,-474 896.479,-474 896.479,-522 896.479,-522 896.479,-528 890.479,-534 884.479,-534 884.479,-534 727.479,-534 727.479,-534 721.479,-534 715.479,-528 715.479,-522 715.479,-522 715.479,-474 715.479,-474 715.479,-468 721.479,-462 727.479,-462"/>
<text text-anchor="middle" x="805.979" y="-521.2" font-family="Times,serif" font-size="11.00" fill="gray">Exceptions</text>
</g>
<g id="clust4" class="cluster"><title>cluster_\BoardingCards\Contracts</title>
<path fill="none" stroke="gray" d="M36,-140C36,-140 328,-140 328,-140 334,-140 340,-146 340,-152 340,-152 340,-416 340,-416 340,-422 334,-428 328,-428 328,-428 36,-428 36,-428 30,-428 24,-422 24,-416 24,-416 24,-152 24,-152 24,-146 30,-140 36,-140"/>
<text text-anchor="middle" x="182" y="-415.2" font-family="Times,serif" font-size="11.00" fill="gray">Contracts</text>
</g>
<g id="clust5" class="cluster"><title>cluster_\BoardingCards\Logic</title>
<path fill="none" stroke="gray" d="M733.979,-382C733.979,-382 877.979,-382 877.979,-382 883.979,-382 889.979,-388 889.979,-394 889.979,-394 889.979,-442 889.979,-442 889.979,-448 883.979,-454 877.979,-454 877.979,-454 733.979,-454 733.979,-454 727.979,-454 721.979,-448 721.979,-442 721.979,-442 721.979,-394 721.979,-394 721.979,-388 727.979,-382 733.979,-382"/>
<text text-anchor="middle" x="805.979" y="-441.2" font-family="Times,serif" font-size="11.00" fill="gray">Logic</text>
</g>
<g id="clust6" class="cluster"><title>cluster_\BoardingCards\Tests</title>
<path fill="none" stroke="gray" d="M720.479,-114C720.479,-114 891.479,-114 891.479,-114 897.479,-114 903.479,-120 903.479,-126 903.479,-126 903.479,-174 903.479,-174 903.479,-180 897.479,-186 891.479,-186 891.479,-186 720.479,-186 720.479,-186 714.479,-186 708.479,-180 708.479,-174 708.479,-174 708.479,-126 708.479,-126 708.479,-120 714.479,-114 720.479,-114"/>
<text text-anchor="middle" x="805.979" y="-173.2" font-family="Times,serif" font-size="11.00" fill="gray">Tests</text>
</g>
<g id="clust7" class="cluster"><title>cluster_\BoardingCards\BoardingCardsTypes</title>
<path fill="none" stroke="gray" d="M452.239,-194C452.239,-194 870.979,-194 870.979,-194 876.979,-194 882.979,-200 882.979,-206 882.979,-206 882.979,-362 882.979,-362 882.979,-368 876.979,-374 870.979,-374 870.979,-374 452.239,-374 452.239,-374 446.239,-374 440.239,-368 440.239,-362 440.239,-362 440.239,-206 440.239,-206 440.239,-200 446.239,-194 452.239,-194"/>
<text text-anchor="middle" x="661.609" y="-361.2" font-family="Times,serif" font-size="11.00" fill="gray">BoardingCardsTypes</text>
</g>
<!-- \\BoardingCards\\Exceptions\\BoardingCardsException -->
<g id="node1" class="node"><title>\\BoardingCards\\Exceptions\\BoardingCardsException</title>
<polygon fill="none" stroke="black" points="888.479,-506 723.479,-506 723.479,-470 888.479,-470 888.479,-506"/>
<text text-anchor="middle" x="805.979" y="-485.2" font-family="Courier,monospace" font-size="11.00">BoardingCardsException</text>
</g>
<!-- \\Exception -->
<g id="node13" class="node"><title>\\Exception</title>
<ellipse fill="none" stroke="black" cx="524.239" cy="-72" rx="40.8928" ry="18"/>
<text text-anchor="middle" x="524.239" y="-68.3" font-family="Times,serif" font-size="14.00" fill="gray">xception</text>
</g>
<!-- \\BoardingCards\\Exceptions\\BoardingCardsException&#45;&gt;\\Exception -->
<g id="edge1" class="edge"><title>\\BoardingCards\\Exceptions\\BoardingCardsException&#45;&gt;\\Exception</title>
<path fill="none" stroke="black" d="M723.225,-469.834C717.802,-466.522 712.793,-462.613 708.479,-458 624.835,-368.556 704.53,-296.726 644.479,-190 622.087,-150.206 582.4,-114.896 554.999,-93.5029"/>
<polygon fill="none" stroke="black" points="556.991,-90.6199 546.923,-87.321 552.736,-96.1785 556.991,-90.6199"/>
</g>
<!-- \\BoardingCards\\Contracts\\GateBoardingCardAttributes -->
<g id="node2" class="node"><title>\\BoardingCards\\Contracts\\GateBoardingCardAttributes</title>
<polygon fill="none" stroke="black" points="278,-346 86,-346 86,-310 278,-310 278,-346"/>
<text text-anchor="middle" x="182" y="-325.2" font-family="Courier,monospace" font-size="11.00">GateBoardingCardAttributes</text>
</g>
<!-- \\BoardingCards\\Contracts\\BaggageBoardingCardAttributes -->
<g id="node3" class="node"><title>\\BoardingCards\\Contracts\\BaggageBoardingCardAttributes</title>
<polygon fill="none" stroke="black" points="288,-400 76,-400 76,-364 288,-364 288,-400"/>
<text text-anchor="middle" x="182" y="-379.2" font-family="Courier,monospace" font-size="11.00">BaggageBoardingCardAttributes</text>
</g>
<!-- \\BoardingCards\\Contracts\\TransportationNumberBoardingCardAttributes -->
<g id="node4" class="node"><title>\\BoardingCards\\Contracts\\TransportationNumberBoardingCardAttributes</title>
<polygon fill="none" stroke="black" points="332,-238 32,-238 32,-202 332,-202 332,-238"/>
<text text-anchor="middle" x="182" y="-217.2" font-family="Courier,monospace" font-size="11.00">TransportationNumberBoardingCardAttributes</text>
</g>
<!-- \\BoardingCards\\Contracts\\GeneralBoardingCardAttributes -->
<g id="node5" class="node"><title>\\BoardingCards\\Contracts\\GeneralBoardingCardAttributes</title>
<polygon fill="none" stroke="black" points="288,-184 76,-184 76,-148 288,-148 288,-184"/>
<text text-anchor="middle" x="182" y="-163.2" font-family="Courier,monospace" font-size="11.00">GeneralBoardingCardAttributes</text>
</g>
<!-- \\BoardingCards\\Contracts\\SeatableBoardingCardAttributes -->
<g id="node6" class="node"><title>\\BoardingCards\\Contracts\\SeatableBoardingCardAttributes</title>
<polygon fill="none" stroke="black" points="291.5,-292 72.5,-292 72.5,-256 291.5,-256 291.5,-292"/>
<text text-anchor="middle" x="182" y="-271.2" font-family="Courier,monospace" font-size="11.00">SeatableBoardingCardAttributes</text>
</g>
<!-- \\BoardingCards\\Logic\\SortingBoardingCards -->
<g id="node7" class="node"><title>\\BoardingCards\\Logic\\SortingBoardingCards</title>
<polygon fill="none" stroke="black" points="881.979,-426 729.979,-426 729.979,-390 881.979,-390 881.979,-426"/>
<text text-anchor="middle" x="805.979" y="-405.2" font-family="Courier,monospace" font-size="11.00">SortingBoardingCards</text>
</g>
<!-- \\BoardingCards\\Tests\\SortingBoardingCardsTest -->
<g id="node8" class="node"><title>\\BoardingCards\\Tests\\SortingBoardingCardsTest</title>
<polygon fill="none" stroke="black" points="895.479,-158 716.479,-158 716.479,-122 895.479,-122 895.479,-158"/>
<text text-anchor="middle" x="805.979" y="-137.2" font-family="Courier,monospace" font-size="11.00">SortingBoardingCardsTest</text>
</g>
<!-- \\PHPUnit\\Framework\\TestCase -->
<g id="node14" class="node"><title>\\PHPUnit\\Framework\\TestCase</title>
<ellipse fill="none" stroke="black" cx="524.239" cy="-18" rx="120.479" ry="18"/>
<text text-anchor="middle" x="524.239" y="-14.3" font-family="Times,serif" font-size="14.00" fill="gray">\PHPUnit\FrameworkTestCase</text>
</g>
<!-- \\BoardingCards\\Tests\\SortingBoardingCardsTest&#45;&gt;\\PHPUnit\\Framework\\TestCase -->
<g id="edge2" class="edge"><title>\\BoardingCards\\Tests\\SortingBoardingCardsTest&#45;&gt;\\PHPUnit\\Framework\\TestCase</title>
<path fill="none" stroke="black" d="M780.126,-121.928C749.621,-100.562 695.627,-65.344 644.479,-45 634.182,-40.9046 623.126,-37.3567 612.049,-34.3032"/>
<polygon fill="none" stroke="black" points="612.888,-30.9051 602.327,-31.7459 611.108,-37.6748 612.888,-30.9051"/>
</g>
<!-- \\BoardingCards\\BoardingCardsTypes\\AbstractBoardingCard -->
<g id="node9" class="node"><title>\\BoardingCards\\BoardingCardsTypes\\AbstractBoardingCard</title>
<polygon fill="none" stroke="black" points="600.239,-246 448.239,-246 448.239,-210 600.239,-210 600.239,-246"/>
<text text-anchor="start" x="490.239" y="-231.2" font-family="Courier,monospace" font-size="11.00">«abstract»</text>
<text text-anchor="start" x="456.239" y="-219.2" font-family="Courier,monospace" font-size="11.00">AbstractBoardingCard</text>
</g>
<!-- \\BoardingCards\\BoardingCardsTypes\\AbstractBoardingCard&#45;&gt;\\BoardingCards\\Contracts\\GeneralBoardingCardAttributes -->
<g id="edge3" class="edge"><title>\\BoardingCards\\BoardingCardsTypes\\AbstractBoardingCard&#45;&gt;\\BoardingCards\\Contracts\\GeneralBoardingCardAttributes</title>
<path fill="none" stroke="black" stroke-dasharray="1,5" d="M447.964,-213.298C414.873,-206.919 375.532,-199.448 340,-193 326.533,-190.556 312.406,-188.048 298.376,-185.592"/>
<polygon fill="none" stroke="black" points="298.642,-182.086 288.189,-183.814 297.439,-188.981 298.642,-182.086"/>
</g>
<!-- \\BoardingCards\\BoardingCardsTypes\\BusBoardingCard -->
<g id="node10" class="node"><title>\\BoardingCards\\BoardingCardsTypes\\BusBoardingCard</title>
<polygon fill="none" stroke="black" points="864.979,-238 746.979,-238 746.979,-202 864.979,-202 864.979,-238"/>
<text text-anchor="middle" x="805.979" y="-217.2" font-family="Courier,monospace" font-size="11.00">BusBoardingCard</text>
</g>
<!-- \\BoardingCards\\BoardingCardsTypes\\BusBoardingCard&#45;&gt;\\BoardingCards\\BoardingCardsTypes\\AbstractBoardingCard -->
<g id="edge4" class="edge"><title>\\BoardingCards\\BoardingCardsTypes\\BusBoardingCard&#45;&gt;\\BoardingCards\\BoardingCardsTypes\\AbstractBoardingCard</title>
<path fill="none" stroke="black" d="M746.677,-221.667C707.31,-222.793 654.693,-224.298 610.627,-225.558"/>
<polygon fill="none" stroke="black" points="610.391,-222.063 600.495,-225.848 610.591,-229.06 610.391,-222.063"/>
</g>
<!-- \\BoardingCards\\BoardingCardsTypes\\FlightBoardingCard -->
<g id="node11" class="node"><title>\\BoardingCards\\BoardingCardsTypes\\FlightBoardingCard</title>
<polygon fill="none" stroke="black" points="874.979,-346 736.979,-346 736.979,-310 874.979,-310 874.979,-346"/>
<text text-anchor="middle" x="805.979" y="-325.2" font-family="Courier,monospace" font-size="11.00">FlightBoardingCard</text>
</g>
<!-- \\BoardingCards\\BoardingCardsTypes\\FlightBoardingCard&#45;&gt;\\BoardingCards\\Contracts\\GateBoardingCardAttributes -->
<g id="edge8" class="edge"><title>\\BoardingCards\\BoardingCardsTypes\\FlightBoardingCard&#45;&gt;\\BoardingCards\\Contracts\\GateBoardingCardAttributes</title>
<path fill="none" stroke="black" stroke-dasharray="1,5" d="M523.239,-328C444.501,-324.899 355.433,-325.03 288.182,-325.866"/>
<polygon fill="none" stroke="black" points="287.955,-322.369 278.002,-326 288.047,-329.368 287.955,-322.369"/>
</g>
<!-- \\BoardingCards\\BoardingCardsTypes\\FlightBoardingCard&#45;&gt;\\BoardingCards\\Contracts\\BaggageBoardingCardAttributes -->
<g id="edge9" class="edge"><title>\\BoardingCards\\BoardingCardsTypes\\FlightBoardingCard&#45;&gt;\\BoardingCards\\Contracts\\BaggageBoardingCardAttributes</title>
<path fill="none" stroke="black" stroke-dasharray="1,5" d="M523.239,-328C511.804,-327.55 392.382,-346.947 298.211,-362.616"/>
<polygon fill="none" stroke="black" points="297.602,-359.169 288.313,-364.265 298.753,-366.074 297.602,-359.169"/>
</g>
<!-- \\BoardingCards\\BoardingCardsTypes\\FlightBoardingCard&#45;&gt;\\BoardingCards\\Contracts\\TransportationNumberBoardingCardAttributes -->
<g id="edge7" class="edge"><title>\\BoardingCards\\BoardingCardsTypes\\FlightBoardingCard&#45;&gt;\\BoardingCards\\Contracts\\TransportationNumberBoardingCardAttributes</title>
<path fill="none" stroke="black" stroke-dasharray="1,5" d="M736.831,-329.497C680.17,-330.382 597.425,-330.843 525.239,-328"/>
<path fill="none" stroke="black" stroke-dasharray="1,5" d="M523.239,-328C465.988,-325.745 456.156,-302.717 404,-279 375.051,-265.836 370.218,-256.913 340,-247 332.874,-244.662 325.496,-242.517 317.999,-240.549"/>
<polygon fill="none" stroke="black" points="318.638,-237.101 308.087,-238.064 316.935,-243.891 318.638,-237.101"/>
</g>
<!-- \\BoardingCards\\BoardingCardsTypes\\FlightBoardingCard&#45;&gt;\\BoardingCards\\Contracts\\SeatableBoardingCardAttributes -->
<g id="edge6" class="edge"><title>\\BoardingCards\\BoardingCardsTypes\\FlightBoardingCard&#45;&gt;\\BoardingCards\\Contracts\\SeatableBoardingCardAttributes</title>
<path fill="none" stroke="black" stroke-dasharray="1,5" d="M523.239,-328C500.846,-327.118 388.047,-308.759 298.379,-293.689"/>
<polygon fill="none" stroke="black" points="298.84,-290.218 288.398,-292.01 297.678,-297.121 298.84,-290.218"/>
</g>
<!-- \\BoardingCards\\BoardingCardsTypes\\FlightBoardingCard&#45;&gt;\\BoardingCards\\BoardingCardsTypes\\AbstractBoardingCard -->
<g id="edge5" class="edge"><title>\\BoardingCards\\BoardingCardsTypes\\FlightBoardingCard&#45;&gt;\\BoardingCards\\BoardingCardsTypes\\AbstractBoardingCard</title>
<path fill="none" stroke="black" d="M736.954,-310.732C727.298,-307.772 717.568,-304.507 708.479,-301 678.809,-289.552 673.802,-281.308 644.479,-269 627.943,-262.059 609.78,-255.362 592.724,-249.463"/>
<polygon fill="none" stroke="black" points="593.425,-246.004 582.83,-246.087 591.164,-252.629 593.425,-246.004"/>
</g>
<!-- \\BoardingCards\\BoardingCardsTypes\\TrainBoardingCard -->
<g id="node12" class="node"><title>\\BoardingCards\\BoardingCardsTypes\\TrainBoardingCard</title>
<polygon fill="none" stroke="black" points="871.479,-292 740.479,-292 740.479,-256 871.479,-256 871.479,-292"/>
<text text-anchor="middle" x="805.979" y="-271.2" font-family="Courier,monospace" font-size="11.00">TrainBoardingCard</text>
</g>
<!-- \\BoardingCards\\BoardingCardsTypes\\TrainBoardingCard&#45;&gt;\\BoardingCards\\Contracts\\TransportationNumberBoardingCardAttributes -->
<g id="edge12" class="edge"><title>\\BoardingCards\\BoardingCardsTypes\\TrainBoardingCard&#45;&gt;\\BoardingCards\\Contracts\\TransportationNumberBoardingCardAttributes</title>
<path fill="none" stroke="black" stroke-dasharray="1,5" d="M740.228,-275.443C683.512,-276.362 598.881,-276.9 525.239,-274"/>
<path fill="none" stroke="black" stroke-dasharray="1,5" d="M523.239,-274C500.846,-273.118 388.047,-254.759 298.379,-239.689"/>
<polygon fill="none" stroke="black" points="298.84,-236.218 288.398,-238.01 297.678,-243.121 298.84,-236.218"/>
</g>
<!-- \\BoardingCards\\BoardingCardsTypes\\TrainBoardingCard&#45;&gt;\\BoardingCards\\Contracts\\SeatableBoardingCardAttributes -->
<g id="edge11" class="edge"><title>\\BoardingCards\\BoardingCardsTypes\\TrainBoardingCard&#45;&gt;\\BoardingCards\\Contracts\\SeatableBoardingCardAttributes</title>
<path fill="none" stroke="black" stroke-dasharray="1,5" d="M523.239,-274C449.845,-271.109 367.476,-271.027 302.167,-271.707"/>
<polygon fill="none" stroke="black" points="301.796,-268.21 291.836,-271.822 301.874,-275.21 301.796,-268.21"/>
</g>
<!-- \\BoardingCards\\BoardingCardsTypes\\TrainBoardingCard&#45;&gt;\\BoardingCards\\BoardingCardsTypes\\AbstractBoardingCard -->
<g id="edge10" class="edge"><title>\\BoardingCards\\BoardingCardsTypes\\TrainBoardingCard&#45;&gt;\\BoardingCards\\BoardingCardsTypes\\AbstractBoardingCard</title>
<path fill="none" stroke="black" d="M740.45,-263.389C701.76,-257.027 652.109,-248.862 610.248,-241.979"/>
<polygon fill="none" stroke="black" points="610.776,-238.519 600.34,-240.349 609.64,-245.426 610.776,-238.519"/>
</g>
</g>
</svg>
