<?xml version="1.0" encoding="UTF-8" standalone="no"?>
<!DOCTYPE svg PUBLIC "-//W3C//DTD SVG 1.1//EN"
 "http://www.w3.org/Graphics/SVG/1.1/DTD/svg11.dtd">
<!-- Generated by graphviz version 2.38.0 (20140413.2041)
 -->
<!-- Title: G Pages: 1 -->
<svg width="935pt" height="686pt"
 viewBox="0.00 0.00 935.48 686.00" xmlns="http://www.w3.org/2000/svg" xmlns:xlink="http://www.w3.org/1999/xlink">
<g id="graph0" class="graph" transform="scale(1 1) rotate(0) translate(4 682)">
<title>G</title>
<polygon fill="white" stroke="none" points="-4,4 -4,-682 931.479,-682 931.479,4 -4,4"/>
<g id="clust1" class="cluster"><title>cluster_Global</title>
<path fill="none" stroke="gray" d="M20,-98C20,-98 907.479,-98 907.479,-98 913.479,-98 919.479,-104 919.479,-110 919.479,-110 919.479,-658 919.479,-658 919.479,-664 913.479,-670 907.479,-670 907.479,-670 20,-670 20,-670 14,-670 8,-664 8,-658 8,-658 8,-110 8,-110 8,-104 14,-98 20,-98"/>
<text text-anchor="middle" x="463.739" y="-657.2" font-family="Times,serif" font-size="11.00" fill="gray">Global</text>
</g>
<g id="clust2" class="cluster"><title>cluster_\BoardingCards</title>
<path fill="none" stroke="gray" d="M28,-106C28,-106 899.479,-106 899.479,-106 905.479,-106 911.479,-112 911.479,-118 911.479,-118 911.479,-630 911.479,-630 911.479,-636 905.479,-642 899.479,-642 899.479,-642 28,-642 28,-642 22,-642 16,-636 16,-630 16,-630 16,-118 16,-118 16,-112 22,-106 28,-106"/>
<text text-anchor="middle" x="463.739" y="-629.2" font-family="Times,serif" font-size="11.00" fill="gray">BoardingCards</text>
</g>
<g id="clust3" class="cluster"><title>cluster_\BoardingCards\Exceptions</title>
<path fill="none" stroke="gray" d="M727.479,-462C727.479,-462 884.479,-462 884.479,-462 890.479,-462 896.479,-468 896.479,-474 896.479,-474 896.479,-522 896.479,-522 896.479,-528 890.479,-534 884.479,-534 884.479,-534 727.479,-534 727.479,-534 721.479,-534 715.479,-528 715.479,-522 715.479,-522 715.479,-474 715.479,-474 715.479,-468 721.479,-462 727.479,-462"/>
<text text-anchor="middle" x="805.979" y="-521.2" font-family="Times,serif" font-size="11.00" fill="gray">Exceptions</text>
</g>
<g id="clust4" class="cluster"><title>cluster_\BoardingCards\OutputFormats</title>
<path fill="none" stroke="gray" d="M452.239,-542C452.239,-542 870.979,-542 870.979,-542 876.979,-542 882.979,-548 882.979,-554 882.979,-554 882.979,-602 882.979,-602 882.979,-608 876.979,-614 870.979,-614 870.979,-614 452.239,-614 452.239,-614 446.239,-614 440.239,-608 440.239,-602 440.239,-602 440.239,-554 440.239,-554 440.239,-548 446.239,-542 452.239,-542"/>
<text text-anchor="middle" x="661.609" y="-601.2" font-family="Times,serif" font-size="11.00" fill="gray">OutputFormats</text>
</g>
<g id="clust5" class="cluster"><title>cluster_\BoardingCards\Contracts</title>
<path fill="none" stroke="gray" d="M36,-208C36,-208 328,-208 328,-208 334,-208 340,-214 340,-220 340,-220 340,-538 340,-538 340,-544 334,-550 328,-550 328,-550 36,-550 36,-550 30,-550 24,-544 24,-538 24,-538 24,-220 24,-220 24,-214 30,-208 36,-208"/>
<text text-anchor="middle" x="182" y="-537.2" font-family="Times,serif" font-size="11.00" fill="gray">Contracts</text>
</g>
<g id="clust6" class="cluster"><title>cluster_\BoardingCards\Logic</title>
<path fill="none" stroke="gray" d="M733.979,-382C733.979,-382 877.979,-382 877.979,-382 883.979,-382 889.979,-388 889.979,-394 889.979,-394 889.979,-442 889.979,-442 889.979,-448 883.979,-454 877.979,-454 877.979,-454 733.979,-454 733.979,-454 727.979,-454 721.979,-448 721.979,-442 721.979,-442 721.979,-394 721.979,-394 721.979,-388 727.979,-382 733.979,-382"/>
<text text-anchor="middle" x="805.979" y="-441.2" font-family="Times,serif" font-size="11.00" fill="gray">Logic</text>
</g>
<g id="clust7" class="cluster"><title>cluster_\BoardingCards\Tests</title>
<path fill="none" stroke="gray" d="M720.479,-114C720.479,-114 891.479,-114 891.479,-114 897.479,-114 903.479,-120 903.479,-126 903.479,-126 903.479,-174 903.479,-174 903.479,-180 897.479,-186 891.479,-186 891.479,-186 720.479,-186 720.479,-186 714.479,-186 708.479,-180 708.479,-174 708.479,-174 708.479,-126 708.479,-126 708.479,-120 714.479,-114 720.479,-114"/>
<text text-anchor="middle" x="805.979" y="-173.2" font-family="Times,serif" font-size="11.00" fill="gray">Tests</text>
</g>
<g id="clust8" class="cluster"><title>cluster_\BoardingCards\BoardingCardsTypes</title>
<path fill="none" stroke="gray" d="M452.239,-194C452.239,-194 870.979,-194 870.979,-194 876.979,-194 882.979,-200 882.979,-206 882.979,-206 882.979,-362 882.979,-362 882.979,-368 876.979,-374 870.979,-374 870.979,-374 452.239,-374 452.239,-374 446.239,-374 440.239,-368 440.239,-362 440.239,-362 440.239,-206 440.239,-206 440.239,-200 446.239,-194 452.239,-194"/>
<text text-anchor="middle" x="661.609" y="-361.2" font-family="Times,serif" font-size="11.00" fill="gray">BoardingCardsTypes</text>
</g>
<!-- \\BoardingCards\\Exceptions\\BoardingCardsException -->
<g id="node1" class="node"><title>\\BoardingCards\\Exceptions\\BoardingCardsException</title>
<polygon fill="none" stroke="black" points="888.479,-506 723.479,-506 723.479,-470 888.479,-470 888.479,-506"/>
<text text-anchor="middle" x="805.979" y="-485.2" font-family="Courier,monospace" font-size="11.00">BoardingCardsException</text>
</g>
<!-- \\Exception -->
<g id="node16" class="node"><title>\\Exception</title>
<ellipse fill="none" stroke="black" cx="524.239" cy="-72" rx="40.8928" ry="18"/>
<text text-anchor="middle" x="524.239" y="-68.3" font-family="Times,serif" font-size="14.00" fill="gray">xception</text>
</g>
<!-- \\BoardingCards\\Exceptions\\BoardingCardsException&#45;&gt;\\Exception -->
<g id="edge1" class="edge"><title>\\BoardingCards\\Exceptions\\BoardingCardsException&#45;&gt;\\Exception</title>
<path fill="none" stroke="black" d="M723.225,-469.834C717.802,-466.522 712.793,-462.613 708.479,-458 624.835,-368.556 704.53,-296.726 644.479,-190 622.087,-150.206 582.4,-114.896 554.999,-93.5029"/>
<polygon fill="none" stroke="black" points="556.991,-90.6199 546.923,-87.321 552.736,-96.1785 556.991,-90.6199"/>
</g>
<!-- \\BoardingCards\\OutputFormats\\AbstractOutputFormat -->
<g id="node2" class="node"><title>\\BoardingCards\\OutputFormats\\AbstractOutputFormat</title>
<polygon fill="none" stroke="black" points="600.239,-586 448.239,-586 448.239,-550 600.239,-550 600.239,-586"/>
<text text-anchor="start" x="490.239" y="-571.2" font-family="Courier,monospace" font-size="11.00">«abstract»</text>
<text text-anchor="start" x="456.239" y="-559.2" font-family="Courier,monospace" font-size="11.00">AbstractOutputFormat</text>
</g>
<!-- \\BoardingCards\\Contracts\\OutputFormat -->
<g id="node4" class="node"><title>\\BoardingCards\\Contracts\\OutputFormat</title>
<polygon fill="none" stroke="black" points="231,-522 133,-522 133,-486 231,-486 231,-522"/>
<text text-anchor="middle" x="182" y="-501.2" font-family="Courier,monospace" font-size="11.00">OutputFormat</text>
</g>
<!-- \\BoardingCards\\OutputFormats\\AbstractOutputFormat&#45;&gt;\\BoardingCards\\Contracts\\OutputFormat -->
<g id="edge2" class="edge"><title>\\BoardingCards\\OutputFormats\\AbstractOutputFormat&#45;&gt;\\BoardingCards\\Contracts\\OutputFormat</title>
<path fill="none" stroke="black" stroke-dasharray="1,5" d="M448.151,-553.876C385.752,-542.138 298.238,-525.677 241.091,-514.927"/>
<polygon fill="none" stroke="black" points="241.612,-511.464 231.137,-513.055 240.318,-518.343 241.612,-511.464"/>
</g>
<!-- \\BoardingCards\\OutputFormats\\StringOutputFormat -->
<g id="node3" class="node"><title>\\BoardingCards\\OutputFormats\\StringOutputFormat</title>
<polygon fill="none" stroke="black" points="874.979,-586 736.979,-586 736.979,-550 874.979,-550 874.979,-586"/>
<text text-anchor="middle" x="805.979" y="-565.2" font-family="Courier,monospace" font-size="11.00">StringOutputFormat</text>
</g>
<!-- \\BoardingCards\\OutputFormats\\StringOutputFormat&#45;&gt;\\BoardingCards\\OutputFormats\\AbstractOutputFormat -->
<g id="edge11" class="edge"><title>\\BoardingCards\\OutputFormats\\StringOutputFormat&#45;&gt;\\BoardingCards\\OutputFormats\\AbstractOutputFormat</title>
<path fill="none" stroke="black" d="M736.904,-568C698.812,-568 650.972,-568 610.414,-568"/>
<polygon fill="none" stroke="black" points="610.27,-564.5 600.27,-568 610.27,-571.5 610.27,-564.5"/>
</g>
<!-- \\BoardingCards\\OutputFormats\\StringOutputFormat&#45;&gt;\\BoardingCards\\Contracts\\OutputFormat -->
<g id="edge12" class="edge"><title>\\BoardingCards\\OutputFormats\\StringOutputFormat&#45;&gt;\\BoardingCards\\Contracts\\OutputFormat</title>
<path fill="none" stroke="black" stroke-dasharray="1,5" d="M736.833,-555.195C708.369,-550.196 674.904,-544.772 644.479,-541 500.041,-523.095 329.043,-512.008 241.327,-507.051"/>
<polygon fill="none" stroke="black" points="241.486,-503.555 231.306,-506.492 241.095,-510.544 241.486,-503.555"/>
</g>
<!-- \\BoardingCards\\Contracts\\GateBoardingCardAttributes -->
<g id="node5" class="node"><title>\\BoardingCards\\Contracts\\GateBoardingCardAttributes</title>
<polygon fill="none" stroke="black" points="278,-468 86,-468 86,-432 278,-432 278,-468"/>
<text text-anchor="middle" x="182" y="-447.2" font-family="Courier,monospace" font-size="11.00">GateBoardingCardAttributes</text>
</g>
<!-- \\BoardingCards\\Contracts\\BaggageBoardingCardAttributes -->
<g id="node6" class="node"><title>\\BoardingCards\\Contracts\\BaggageBoardingCardAttributes</title>
<polygon fill="none" stroke="black" points="288,-414 76,-414 76,-378 288,-378 288,-414"/>
<text text-anchor="middle" x="182" y="-393.2" font-family="Courier,monospace" font-size="11.00">BaggageBoardingCardAttributes</text>
</g>
<!-- \\BoardingCards\\Contracts\\TransportationNumberBoardingCardAttributes -->
<g id="node7" class="node"><title>\\BoardingCards\\Contracts\\TransportationNumberBoardingCardAttributes</title>
<polygon fill="none" stroke="black" points="332,-360 32,-360 32,-324 332,-324 332,-360"/>
<text text-anchor="middle" x="182" y="-339.2" font-family="Courier,monospace" font-size="11.00">TransportationNumberBoardingCardAttributes</text>
</g>
<!-- \\BoardingCards\\Contracts\\GeneralBoardingCardAttributes -->
<g id="node8" class="node"><title>\\BoardingCards\\Contracts\\GeneralBoardingCardAttributes</title>
<polygon fill="none" stroke="black" points="288,-306 76,-306 76,-270 288,-270 288,-306"/>
<text text-anchor="middle" x="182" y="-285.2" font-family="Courier,monospace" font-size="11.00">GeneralBoardingCardAttributes</text>
</g>
<!-- \\BoardingCards\\Contracts\\SeatableBoardingCardAttributes -->
<g id="node9" class="node"><title>\\BoardingCards\\Contracts\\SeatableBoardingCardAttributes</title>
<polygon fill="none" stroke="black" points="291.5,-252 72.5,-252 72.5,-216 291.5,-216 291.5,-252"/>
<text text-anchor="middle" x="182" y="-231.2" font-family="Courier,monospace" font-size="11.00">SeatableBoardingCardAttributes</text>
</g>
<!-- \\BoardingCards\\Logic\\SortingBoardingCards -->
<g id="node10" class="node"><title>\\BoardingCards\\Logic\\SortingBoardingCards</title>
<polygon fill="none" stroke="black" points="881.979,-426 729.979,-426 729.979,-390 881.979,-390 881.979,-426"/>
<text text-anchor="middle" x="805.979" y="-405.2" font-family="Courier,monospace" font-size="11.00">SortingBoardingCards</text>
</g>
<!-- \\BoardingCards\\Tests\\SortingBoardingCardsTest -->
<g id="node11" class="node"><title>\\BoardingCards\\Tests\\SortingBoardingCardsTest</title>
<polygon fill="none" stroke="black" points="895.479,-158 716.479,-158 716.479,-122 895.479,-122 895.479,-158"/>
<text text-anchor="middle" x="805.979" y="-137.2" font-family="Courier,monospace" font-size="11.00">SortingBoardingCardsTest</text>
</g>
<!-- \\PHPUnit\\Framework\\TestCase -->
<g id="node17" class="node"><title>\\PHPUnit\\Framework\\TestCase</title>
<ellipse fill="none" stroke="black" cx="524.239" cy="-18" rx="120.479" ry="18"/>
<text text-anchor="middle" x="524.239" y="-14.3" font-family="Times,serif" font-size="14.00" fill="gray">\PHPUnit\FrameworkTestCase</text>
</g>
<!-- \\BoardingCards\\Tests\\SortingBoardingCardsTest&#45;&gt;\\PHPUnit\\Framework\\TestCase -->
<g id="edge3" class="edge"><title>\\BoardingCards\\Tests\\SortingBoardingCardsTest&#45;&gt;\\PHPUnit\\Framework\\TestCase</title>
<path fill="none" stroke="black" d="M780.126,-121.928C749.621,-100.562 695.627,-65.344 644.479,-45 634.182,-40.9046 623.126,-37.3567 612.049,-34.3032"/>
<polygon fill="none" stroke="black" points="612.888,-30.9051 602.327,-31.7459 611.108,-37.6748 612.888,-30.9051"/>
</g>
<!-- \\BoardingCards\\BoardingCardsTypes\\AbstractBoardingCard -->
<g id="node12" class="node"><title>\\BoardingCards\\BoardingCardsTypes\\AbstractBoardingCard</title>
<polygon fill="none" stroke="black" points="600.239,-302 448.239,-302 448.239,-266 600.239,-266 600.239,-302"/>
<text text-anchor="start" x="490.239" y="-287.2" font-family="Courier,monospace" font-size="11.00">«abstract»</text>
<text text-anchor="start" x="456.239" y="-275.2" font-family="Courier,monospace" font-size="11.00">AbstractBoardingCard</text>
</g>
<!-- \\BoardingCards\\BoardingCardsTypes\\AbstractBoardingCard&#45;&gt;\\BoardingCards\\Contracts\\GeneralBoardingCardAttributes -->
<g id="edge4" class="edge"><title>\\BoardingCards\\BoardingCardsTypes\\AbstractBoardingCard&#45;&gt;\\BoardingCards\\Contracts\\GeneralBoardingCardAttributes</title>
<path fill="none" stroke="black" stroke-dasharray="1,5" d="M448.151,-284.883C404.211,-285.399 347.817,-286.062 298.343,-286.644"/>
<polygon fill="none" stroke="black" points="298.18,-283.146 288.222,-286.763 298.263,-290.145 298.18,-283.146"/>
</g>
<!-- \\BoardingCards\\BoardingCardsTypes\\BusBoardingCard -->
<g id="node13" class="node"><title>\\BoardingCards\\BoardingCardsTypes\\BusBoardingCard</title>
<polygon fill="none" stroke="black" points="864.979,-238 746.979,-238 746.979,-202 864.979,-202 864.979,-238"/>
<text text-anchor="middle" x="805.979" y="-217.2" font-family="Courier,monospace" font-size="11.00">BusBoardingCard</text>
</g>
<!-- \\BoardingCards\\BoardingCardsTypes\\BusBoardingCard&#45;&gt;\\BoardingCards\\BoardingCardsTypes\\AbstractBoardingCard -->
<g id="edge5" class="edge"><title>\\BoardingCards\\BoardingCardsTypes\\BusBoardingCard&#45;&gt;\\BoardingCards\\BoardingCardsTypes\\AbstractBoardingCard</title>
<path fill="none" stroke="black" d="M746.677,-233.339C707.227,-242.364 654.471,-254.434 610.349,-264.528"/>
<polygon fill="none" stroke="black" points="609.463,-261.14 600.495,-266.783 611.024,-267.964 609.463,-261.14"/>
</g>
<!-- \\BoardingCards\\BoardingCardsTypes\\FlightBoardingCard -->
<g id="node14" class="node"><title>\\BoardingCards\\BoardingCardsTypes\\FlightBoardingCard</title>
<polygon fill="none" stroke="black" points="874.979,-346 736.979,-346 736.979,-310 874.979,-310 874.979,-346"/>
<text text-anchor="middle" x="805.979" y="-325.2" font-family="Courier,monospace" font-size="11.00">FlightBoardingCard</text>
</g>
<!-- \\BoardingCards\\BoardingCardsTypes\\FlightBoardingCard&#45;&gt;\\BoardingCards\\Contracts\\GateBoardingCardAttributes -->
<g id="edge9" class="edge"><title>\\BoardingCards\\BoardingCardsTypes\\FlightBoardingCard&#45;&gt;\\BoardingCards\\Contracts\\GateBoardingCardAttributes</title>
<path fill="none" stroke="black" stroke-dasharray="1,5" d="M523.239,-371C438.703,-375.493 422.552,-404.244 340,-423 323.429,-426.765 305.769,-430.278 288.497,-433.443"/>
<polygon fill="none" stroke="black" points="287.604,-430.047 278.384,-435.266 288.846,-436.936 287.604,-430.047"/>
</g>
<!-- \\BoardingCards\\BoardingCardsTypes\\FlightBoardingCard&#45;&gt;\\BoardingCards\\Contracts\\BaggageBoardingCardAttributes -->
<g id="edge10" class="edge"><title>\\BoardingCards\\BoardingCardsTypes\\FlightBoardingCard&#45;&gt;\\BoardingCards\\Contracts\\BaggageBoardingCardAttributes</title>
<path fill="none" stroke="black" stroke-dasharray="1,5" d="M523.239,-371C448.277,-374.984 364.143,-381.151 298.293,-386.363"/>
<polygon fill="none" stroke="black" points="297.991,-382.876 288.3,-387.158 298.546,-389.854 297.991,-382.876"/>
</g>
<!-- \\BoardingCards\\BoardingCardsTypes\\FlightBoardingCard&#45;&gt;\\BoardingCards\\Contracts\\TransportationNumberBoardingCardAttributes -->
<g id="edge8" class="edge"><title>\\BoardingCards\\BoardingCardsTypes\\FlightBoardingCard&#45;&gt;\\BoardingCards\\Contracts\\TransportationNumberBoardingCardAttributes</title>
<path fill="none" stroke="black" stroke-dasharray="1,5" d="M523.239,-371C452.716,-374.748 374.152,-368.728 310.301,-361.22"/>
<polygon fill="none" stroke="black" points="310.53,-357.722 300.183,-360.003 309.694,-364.672 310.53,-357.722"/>
</g>
<!-- \\BoardingCards\\BoardingCardsTypes\\FlightBoardingCard&#45;&gt;\\BoardingCards\\Contracts\\SeatableBoardingCardAttributes -->
<g id="edge7" class="edge"><title>\\BoardingCards\\BoardingCardsTypes\\FlightBoardingCard&#45;&gt;\\BoardingCards\\Contracts\\SeatableBoardingCardAttributes</title>
<path fill="none" stroke="black" stroke-dasharray="1,5" d="M736.969,-342.331C680.564,-353.279 598.104,-367.127 525.239,-371"/>
<path fill="none" stroke="black" stroke-dasharray="1,5" d="M523.239,-371C463.997,-374.149 454.116,-342.749 404,-311 373.508,-291.683 373.006,-275.611 340,-261 328.009,-255.692 315.074,-251.424 301.956,-247.992"/>
<polygon fill="none" stroke="black" points="302.448,-244.509 291.902,-245.528 300.782,-251.308 302.448,-244.509"/>
</g>
<!-- \\BoardingCards\\BoardingCardsTypes\\FlightBoardingCard&#45;&gt;\\BoardingCards\\BoardingCardsTypes\\AbstractBoardingCard -->
<g id="edge6" class="edge"><title>\\BoardingCards\\BoardingCardsTypes\\FlightBoardingCard&#45;&gt;\\BoardingCards\\BoardingCardsTypes\\AbstractBoardingCard</title>
<path fill="none" stroke="black" d="M736.904,-317.293C698.731,-311.288 650.769,-303.744 610.156,-297.357"/>
<polygon fill="none" stroke="black" points="610.692,-293.898 600.27,-295.802 609.605,-300.813 610.692,-293.898"/>
</g>
<!-- \\BoardingCards\\BoardingCardsTypes\\TrainBoardingCard -->
<g id="node15" class="node"><title>\\BoardingCards\\BoardingCardsTypes\\TrainBoardingCard</title>
<polygon fill="none" stroke="black" points="871.479,-292 740.479,-292 740.479,-256 871.479,-256 871.479,-292"/>
<text text-anchor="middle" x="805.979" y="-271.2" font-family="Courier,monospace" font-size="11.00">TrainBoardingCard</text>
</g>
<!-- \\BoardingCards\\BoardingCardsTypes\\TrainBoardingCard&#45;&gt;\\BoardingCards\\Contracts\\TransportationNumberBoardingCardAttributes -->
<g id="edge15" class="edge"><title>\\BoardingCards\\BoardingCardsTypes\\TrainBoardingCard&#45;&gt;\\BoardingCards\\Contracts\\TransportationNumberBoardingCardAttributes</title>
<path fill="none" stroke="black" stroke-dasharray="1,5" d="M740.222,-291.408C711.152,-298.578 676.302,-306.294 644.479,-311 544.664,-325.761 431.652,-333.5 342.447,-337.555"/>
<polygon fill="none" stroke="black" points="342.076,-334.067 332.241,-338.007 342.386,-341.061 342.076,-334.067"/>
</g>
<!-- \\BoardingCards\\BoardingCardsTypes\\TrainBoardingCard&#45;&gt;\\BoardingCards\\Contracts\\SeatableBoardingCardAttributes -->
<g id="edge14" class="edge"><title>\\BoardingCards\\BoardingCardsTypes\\TrainBoardingCard&#45;&gt;\\BoardingCards\\Contracts\\SeatableBoardingCardAttributes</title>
<path fill="none" stroke="black" stroke-dasharray="1,5" d="M740.237,-266.312C711.017,-263.057 676.046,-259.457 644.479,-257 528.154,-247.948 395.042,-241.757 301.77,-238.099"/>
<polygon fill="none" stroke="black" points="301.864,-234.6 291.735,-237.709 301.592,-241.595 301.864,-234.6"/>
</g>
<!-- \\BoardingCards\\BoardingCardsTypes\\TrainBoardingCard&#45;&gt;\\BoardingCards\\BoardingCardsTypes\\AbstractBoardingCard -->
<g id="edge13" class="edge"><title>\\BoardingCards\\BoardingCardsTypes\\TrainBoardingCard&#45;&gt;\\BoardingCards\\BoardingCardsTypes\\AbstractBoardingCard</title>
<path fill="none" stroke="black" d="M740.45,-276.307C701.842,-277.687 652.318,-279.457 610.513,-280.952"/>
<polygon fill="none" stroke="black" points="610.209,-277.46 600.34,-281.315 610.459,-284.456 610.209,-277.46"/>
</g>
</g>
</svg>
