<?xml version="1.0" encoding="UTF-8" standalone="no"?>
<!DOCTYPE svg PUBLIC "-//W3C//DTD SVG 1.1//EN"
 "http://www.w3.org/Graphics/SVG/1.1/DTD/svg11.dtd">
<!-- Generated by graphviz version 2.38.0 (20140413.2041)
 -->
<!-- Title: G Pages: 1 -->
<svg width="935pt" height="698pt"
 viewBox="0.00 0.00 935.48 698.00" xmlns="http://www.w3.org/2000/svg" xmlns:xlink="http://www.w3.org/1999/xlink">
<g id="graph0" class="graph" transform="scale(1 1) rotate(0) translate(4 694)">
<title>G</title>
<polygon fill="white" stroke="none" points="-4,4 -4,-694 931.479,-694 931.479,4 -4,4"/>
<g id="clust1" class="cluster"><title>cluster_Global</title>
<path fill="none" stroke="gray" d="M20,-98C20,-98 907.479,-98 907.479,-98 913.479,-98 919.479,-104 919.479,-110 919.479,-110 919.479,-670 919.479,-670 919.479,-676 913.479,-682 907.479,-682 907.479,-682 20,-682 20,-682 14,-682 8,-676 8,-670 8,-670 8,-110 8,-110 8,-104 14,-98 20,-98"/>
<text text-anchor="middle" x="463.739" y="-669.2" font-family="Times,serif" font-size="11.00" fill="gray">Global</text>
</g>
<g id="clust2" class="cluster"><title>cluster_\BoardingCards</title>
<path fill="none" stroke="gray" d="M28,-106C28,-106 899.479,-106 899.479,-106 905.479,-106 911.479,-112 911.479,-118 911.479,-118 911.479,-642 911.479,-642 911.479,-648 905.479,-654 899.479,-654 899.479,-654 28,-654 28,-654 22,-654 16,-648 16,-642 16,-642 16,-118 16,-118 16,-112 22,-106 28,-106"/>
<text text-anchor="middle" x="463.739" y="-641.2" font-family="Times,serif" font-size="11.00" fill="gray">BoardingCards</text>
</g>
<g id="clust3" class="cluster"><title>cluster_\BoardingCards\Logic</title>
<path fill="none" stroke="gray" d="M733.979,-554C733.979,-554 877.979,-554 877.979,-554 883.979,-554 889.979,-560 889.979,-566 889.979,-566 889.979,-614 889.979,-614 889.979,-620 883.979,-626 877.979,-626 877.979,-626 733.979,-626 733.979,-626 727.979,-626 721.979,-620 721.979,-614 721.979,-614 721.979,-566 721.979,-566 721.979,-560 727.979,-554 733.979,-554"/>
<text text-anchor="middle" x="805.979" y="-613.2" font-family="Times,serif" font-size="11.00" fill="gray">Logic</text>
</g>
<g id="clust4" class="cluster"><title>cluster_\BoardingCards\OutputFormats</title>
<path fill="none" stroke="gray" d="M432.239,-474C432.239,-474 870.979,-474 870.979,-474 876.979,-474 882.979,-480 882.979,-486 882.979,-486 882.979,-534 882.979,-534 882.979,-540 876.979,-546 870.979,-546 870.979,-546 432.239,-546 432.239,-546 426.239,-546 420.239,-540 420.239,-534 420.239,-534 420.239,-486 420.239,-486 420.239,-480 426.239,-474 432.239,-474"/>
<text text-anchor="middle" x="651.609" y="-533.2" font-family="Times,serif" font-size="11.00" fill="gray">OutputFormats</text>
</g>
<g id="clust5" class="cluster"><title>cluster_\BoardingCards\Contracts</title>
<path fill="none" stroke="gray" d="M36,-167C36,-167 328,-167 328,-167 334,-167 340,-173 340,-179 340,-179 340,-497 340,-497 340,-503 334,-509 328,-509 328,-509 36,-509 36,-509 30,-509 24,-503 24,-497 24,-497 24,-179 24,-179 24,-173 30,-167 36,-167"/>
<text text-anchor="middle" x="182" y="-496.2" font-family="Times,serif" font-size="11.00" fill="gray">Contracts</text>
</g>
<g id="clust6" class="cluster"><title>cluster_\BoardingCards\Exceptions</title>
<path fill="none" stroke="gray" d="M727.479,-194C727.479,-194 884.479,-194 884.479,-194 890.479,-194 896.479,-200 896.479,-206 896.479,-206 896.479,-254 896.479,-254 896.479,-260 890.479,-266 884.479,-266 884.479,-266 727.479,-266 727.479,-266 721.479,-266 715.479,-260 715.479,-254 715.479,-254 715.479,-206 715.479,-206 715.479,-200 721.479,-194 727.479,-194"/>
<text text-anchor="middle" x="805.979" y="-253.2" font-family="Times,serif" font-size="11.00" fill="gray">Exceptions</text>
</g>
<g id="clust7" class="cluster"><title>cluster_\BoardingCards\Tests</title>
<path fill="none" stroke="gray" d="M720.479,-114C720.479,-114 891.479,-114 891.479,-114 897.479,-114 903.479,-120 903.479,-126 903.479,-126 903.479,-174 903.479,-174 903.479,-180 897.479,-186 891.479,-186 891.479,-186 720.479,-186 720.479,-186 714.479,-186 708.479,-180 708.479,-174 708.479,-174 708.479,-126 708.479,-126 708.479,-120 714.479,-114 720.479,-114"/>
<text text-anchor="middle" x="805.979" y="-173.2" font-family="Times,serif" font-size="11.00" fill="gray">Tests</text>
</g>
<g id="clust8" class="cluster"><title>cluster_\BoardingCards\BoardingCardsTypes</title>
<path fill="none" stroke="gray" d="M452.239,-274C452.239,-274 870.979,-274 870.979,-274 876.979,-274 882.979,-280 882.979,-286 882.979,-286 882.979,-442 882.979,-442 882.979,-448 876.979,-454 870.979,-454 870.979,-454 452.239,-454 452.239,-454 446.239,-454 440.239,-448 440.239,-442 440.239,-442 440.239,-286 440.239,-286 440.239,-280 446.239,-274 452.239,-274"/>
<text text-anchor="middle" x="661.609" y="-441.2" font-family="Times,serif" font-size="11.00" fill="gray">BoardingCardsTypes</text>
</g>
<!-- \\BoardingCards\\Logic\\SortingBoardingCards -->
<g id="node1" class="node"><title>\\BoardingCards\\Logic\\SortingBoardingCards</title>
<polygon fill="none" stroke="black" points="881.979,-598 729.979,-598 729.979,-562 881.979,-562 881.979,-598"/>
<text text-anchor="middle" x="805.979" y="-577.2" font-family="Courier,monospace" font-size="11.00">SortingBoardingCards</text>
</g>
<!-- \\BoardingCards\\OutputFormats\\AbstractStringOutputFormat -->
<g id="node2" class="node"><title>\\BoardingCards\\OutputFormats\\AbstractStringOutputFormat</title>
<polygon fill="none" stroke="black" points="620.239,-518 428.239,-518 428.239,-482 620.239,-482 620.239,-518"/>
<text text-anchor="start" x="490.239" y="-503.2" font-family="Courier,monospace" font-size="11.00">«abstract»</text>
<text text-anchor="start" x="436.239" y="-491.2" font-family="Courier,monospace" font-size="11.00">AbstractStringOutputFormat</text>
</g>
<!-- \\BoardingCards\\Contracts\\OutputFormat -->
<g id="node6" class="node"><title>\\BoardingCards\\Contracts\\OutputFormat</title>
<polygon fill="none" stroke="black" points="231,-481 133,-481 133,-445 231,-445 231,-481"/>
<text text-anchor="middle" x="182" y="-460.2" font-family="Courier,monospace" font-size="11.00">OutputFormat</text>
</g>
<!-- \\BoardingCards\\OutputFormats\\AbstractStringOutputFormat&#45;&gt;\\BoardingCards\\Contracts\\OutputFormat -->
<g id="edge1" class="edge"><title>\\BoardingCards\\OutputFormats\\AbstractStringOutputFormat&#45;&gt;\\BoardingCards\\Contracts\\OutputFormat</title>
<path fill="none" stroke="black" stroke-dasharray="1,5" d="M428.011,-489.644C368.053,-483.124 292.588,-474.917 241.366,-469.347"/>
<polygon fill="none" stroke="black" points="241.457,-465.836 231.137,-468.235 240.7,-472.795 241.457,-465.836"/>
</g>
<!-- \\BoardingCards\\OutputFormats\\StringOutputFormat -->
<g id="node3" class="node"><title>\\BoardingCards\\OutputFormats\\StringOutputFormat</title>
<polygon fill="none" stroke="black" points="874.979,-518 736.979,-518 736.979,-482 874.979,-482 874.979,-518"/>
<text text-anchor="middle" x="805.979" y="-497.2" font-family="Courier,monospace" font-size="11.00">StringOutputFormat</text>
</g>
<!-- \\BoardingCards\\OutputFormats\\StringOutputFormat&#45;&gt;\\BoardingCards\\OutputFormats\\AbstractStringOutputFormat -->
<g id="edge2" class="edge"><title>\\BoardingCards\\OutputFormats\\StringOutputFormat&#45;&gt;\\BoardingCards\\OutputFormats\\AbstractStringOutputFormat</title>
<path fill="none" stroke="black" d="M736.904,-500C705.037,-500 666.347,-500 630.806,-500"/>
<polygon fill="none" stroke="black" points="630.383,-496.5 620.383,-500 630.383,-503.5 630.383,-496.5"/>
</g>
<!-- \\BoardingCards\\OutputFormats\\StringOutputFormat&#45;&gt;\\BoardingCards\\Contracts\\OutputFormat -->
<g id="edge3" class="edge"><title>\\BoardingCards\\OutputFormats\\StringOutputFormat&#45;&gt;\\BoardingCards\\Contracts\\OutputFormat</title>
<path fill="none" stroke="black" stroke-dasharray="1,5" d="M736.93,-486.31C708.481,-481.172 675.001,-475.883 644.479,-473 500.01,-459.356 329.025,-460.011 241.319,-461.562"/>
<polygon fill="none" stroke="black" points="241.232,-458.063 231.299,-461.75 241.363,-465.062 241.232,-458.063"/>
</g>
<!-- \\BoardingCards\\Contracts\\BaggageBoardingCardAttributes -->
<g id="node4" class="node"><title>\\BoardingCards\\Contracts\\BaggageBoardingCardAttributes</title>
<polygon fill="none" stroke="black" points="288,-265 76,-265 76,-229 288,-229 288,-265"/>
<text text-anchor="middle" x="182" y="-244.2" font-family="Courier,monospace" font-size="11.00">BaggageBoardingCardAttributes</text>
</g>
<!-- \\BoardingCards\\Contracts\\TransportationNumberBoardingCardAttributes -->
<g id="node5" class="node"><title>\\BoardingCards\\Contracts\\TransportationNumberBoardingCardAttributes</title>
<polygon fill="none" stroke="black" points="332,-427 32,-427 32,-391 332,-391 332,-427"/>
<text text-anchor="middle" x="182" y="-406.2" font-family="Courier,monospace" font-size="11.00">TransportationNumberBoardingCardAttributes</text>
</g>
<!-- \\BoardingCards\\Contracts\\SeatableBoardingCardAttributes -->
<g id="node7" class="node"><title>\\BoardingCards\\Contracts\\SeatableBoardingCardAttributes</title>
<polygon fill="none" stroke="black" points="291.5,-319 72.5,-319 72.5,-283 291.5,-283 291.5,-319"/>
<text text-anchor="middle" x="182" y="-298.2" font-family="Courier,monospace" font-size="11.00">SeatableBoardingCardAttributes</text>
</g>
<!-- \\BoardingCards\\Contracts\\GateBoardingCardAttributes -->
<g id="node8" class="node"><title>\\BoardingCards\\Contracts\\GateBoardingCardAttributes</title>
<polygon fill="none" stroke="black" points="278,-211 86,-211 86,-175 278,-175 278,-211"/>
<text text-anchor="middle" x="182" y="-190.2" font-family="Courier,monospace" font-size="11.00">GateBoardingCardAttributes</text>
</g>
<!-- \\BoardingCards\\Contracts\\GeneralBoardingCardAttributes -->
<g id="node9" class="node"><title>\\BoardingCards\\Contracts\\GeneralBoardingCardAttributes</title>
<polygon fill="none" stroke="black" points="288,-373 76,-373 76,-337 288,-337 288,-373"/>
<text text-anchor="middle" x="182" y="-352.2" font-family="Courier,monospace" font-size="11.00">GeneralBoardingCardAttributes</text>
</g>
<!-- \\BoardingCards\\Exceptions\\BoardingCardsException -->
<g id="node10" class="node"><title>\\BoardingCards\\Exceptions\\BoardingCardsException</title>
<polygon fill="none" stroke="black" points="888.479,-238 723.479,-238 723.479,-202 888.479,-202 888.479,-238"/>
<text text-anchor="middle" x="805.979" y="-217.2" font-family="Courier,monospace" font-size="11.00">BoardingCardsException</text>
</g>
<!-- \\Exception -->
<g id="node16" class="node"><title>\\Exception</title>
<ellipse fill="none" stroke="black" cx="524.239" cy="-72" rx="40.8928" ry="18"/>
<text text-anchor="middle" x="524.239" y="-68.3" font-family="Times,serif" font-size="14.00" fill="gray">xception</text>
</g>
<!-- \\BoardingCards\\Exceptions\\BoardingCardsException&#45;&gt;\\Exception -->
<g id="edge4" class="edge"><title>\\BoardingCards\\Exceptions\\BoardingCardsException&#45;&gt;\\Exception</title>
<path fill="none" stroke="black" d="M738.413,-201.913C728.213,-198.399 717.938,-194.416 708.479,-190 650.163,-162.776 588.451,-119.639 553.597,-93.7516"/>
<polygon fill="none" stroke="black" points="555.435,-90.7554 545.333,-87.5618 551.239,-96.3581 555.435,-90.7554"/>
</g>
<!-- \\BoardingCards\\Tests\\SortingBoardingCardsTest -->
<g id="node11" class="node"><title>\\BoardingCards\\Tests\\SortingBoardingCardsTest</title>
<polygon fill="none" stroke="black" points="895.479,-158 716.479,-158 716.479,-122 895.479,-122 895.479,-158"/>
<text text-anchor="middle" x="805.979" y="-137.2" font-family="Courier,monospace" font-size="11.00">SortingBoardingCardsTest</text>
</g>
<!-- \\PHPUnit\\Framework\\TestCase -->
<g id="node17" class="node"><title>\\PHPUnit\\Framework\\TestCase</title>
<ellipse fill="none" stroke="black" cx="524.239" cy="-18" rx="120.479" ry="18"/>
<text text-anchor="middle" x="524.239" y="-14.3" font-family="Times,serif" font-size="14.00" fill="gray">\PHPUnit\FrameworkTestCase</text>
</g>
<!-- \\BoardingCards\\Tests\\SortingBoardingCardsTest&#45;&gt;\\PHPUnit\\Framework\\TestCase -->
<g id="edge5" class="edge"><title>\\BoardingCards\\Tests\\SortingBoardingCardsTest&#45;&gt;\\PHPUnit\\Framework\\TestCase</title>
<path fill="none" stroke="black" d="M780.126,-121.928C749.621,-100.562 695.627,-65.344 644.479,-45 634.182,-40.9046 623.126,-37.3567 612.049,-34.3032"/>
<polygon fill="none" stroke="black" points="612.888,-30.9051 602.327,-31.7459 611.108,-37.6748 612.888,-30.9051"/>
</g>
<!-- \\BoardingCards\\BoardingCardsTypes\\TrainBoardingCard -->
<g id="node12" class="node"><title>\\BoardingCards\\BoardingCardsTypes\\TrainBoardingCard</title>
<polygon fill="none" stroke="black" points="871.479,-372 740.479,-372 740.479,-336 871.479,-336 871.479,-372"/>
<text text-anchor="middle" x="805.979" y="-351.2" font-family="Courier,monospace" font-size="11.00">TrainBoardingCard</text>
</g>
<!-- \\BoardingCards\\BoardingCardsTypes\\TrainBoardingCard&#45;&gt;\\BoardingCards\\Contracts\\TransportationNumberBoardingCardAttributes -->
<g id="edge8" class="edge"><title>\\BoardingCards\\BoardingCardsTypes\\TrainBoardingCard&#45;&gt;\\BoardingCards\\Contracts\\TransportationNumberBoardingCardAttributes</title>
<path fill="none" stroke="black" stroke-dasharray="1,5" d="M740.432,-367.525C711.25,-373.158 676.255,-379.248 644.479,-383 544.437,-394.811 431.539,-401.291 342.452,-404.827"/>
<polygon fill="none" stroke="black" points="342.116,-401.338 332.26,-405.223 342.388,-408.332 342.116,-401.338"/>
</g>
<!-- \\BoardingCards\\BoardingCardsTypes\\TrainBoardingCard&#45;&gt;\\BoardingCards\\Contracts\\SeatableBoardingCardAttributes -->
<g id="edge7" class="edge"><title>\\BoardingCards\\BoardingCardsTypes\\TrainBoardingCard&#45;&gt;\\BoardingCards\\Contracts\\SeatableBoardingCardAttributes</title>
<path fill="none" stroke="black" stroke-dasharray="1,5" d="M740.344,-342.515C711.146,-337.693 676.161,-332.421 644.479,-329 528.408,-316.467 395.261,-309.137 301.911,-305.143"/>
<polygon fill="none" stroke="black" points="302.007,-301.644 291.868,-304.72 301.712,-308.638 302.007,-301.644"/>
</g>
<!-- \\BoardingCards\\BoardingCardsTypes\\AbstractBoardingCard -->
<g id="node15" class="node"><title>\\BoardingCards\\BoardingCardsTypes\\AbstractBoardingCard</title>
<polygon fill="none" stroke="black" points="600.239,-374 448.239,-374 448.239,-338 600.239,-338 600.239,-374"/>
<text text-anchor="start" x="490.239" y="-359.2" font-family="Courier,monospace" font-size="11.00">«abstract»</text>
<text text-anchor="start" x="456.239" y="-347.2" font-family="Courier,monospace" font-size="11.00">AbstractBoardingCard</text>
</g>
<!-- \\BoardingCards\\BoardingCardsTypes\\TrainBoardingCard&#45;&gt;\\BoardingCards\\BoardingCardsTypes\\AbstractBoardingCard -->
<g id="edge6" class="edge"><title>\\BoardingCards\\BoardingCardsTypes\\TrainBoardingCard&#45;&gt;\\BoardingCards\\BoardingCardsTypes\\AbstractBoardingCard</title>
<path fill="none" stroke="black" d="M740.45,-354.461C701.842,-354.737 652.318,-355.091 610.513,-355.39"/>
<polygon fill="none" stroke="black" points="610.315,-351.892 600.34,-355.463 610.365,-358.891 610.315,-351.892"/>
</g>
<!-- \\BoardingCards\\BoardingCardsTypes\\FlightBoardingCard -->
<g id="node13" class="node"><title>\\BoardingCards\\BoardingCardsTypes\\FlightBoardingCard</title>
<polygon fill="none" stroke="black" points="874.979,-318 736.979,-318 736.979,-282 874.979,-282 874.979,-318"/>
<text text-anchor="middle" x="805.979" y="-297.2" font-family="Courier,monospace" font-size="11.00">FlightBoardingCard</text>
</g>
<!-- \\BoardingCards\\BoardingCardsTypes\\FlightBoardingCard&#45;&gt;\\BoardingCards\\Contracts\\BaggageBoardingCardAttributes -->
<g id="edge13" class="edge"><title>\\BoardingCards\\BoardingCardsTypes\\FlightBoardingCard&#45;&gt;\\BoardingCards\\Contracts\\BaggageBoardingCardAttributes</title>
<path fill="none" stroke="black" stroke-dasharray="1,5" d="M523.239,-299C500.853,-298.584 388.052,-280.831 298.382,-266.184"/>
<polygon fill="none" stroke="black" points="298.835,-262.711 288.401,-264.551 297.705,-269.619 298.835,-262.711"/>
</g>
<!-- \\BoardingCards\\BoardingCardsTypes\\FlightBoardingCard&#45;&gt;\\BoardingCards\\Contracts\\TransportationNumberBoardingCardAttributes -->
<g id="edge11" class="edge"><title>\\BoardingCards\\BoardingCardsTypes\\FlightBoardingCard&#45;&gt;\\BoardingCards\\Contracts\\TransportationNumberBoardingCardAttributes</title>
<path fill="none" stroke="black" stroke-dasharray="1,5" d="M523.239,-299C468.602,-297.985 452.744,-304.297 404,-329 371.057,-345.695 373.555,-366.571 340,-382 335.599,-384.024 331.065,-385.897 326.437,-387.631"/>
<polygon fill="none" stroke="black" points="325.1,-384.39 316.818,-390.998 327.413,-390.997 325.1,-384.39"/>
</g>
<!-- \\BoardingCards\\BoardingCardsTypes\\FlightBoardingCard&#45;&gt;\\BoardingCards\\Contracts\\SeatableBoardingCardAttributes -->
<g id="edge10" class="edge"><title>\\BoardingCards\\BoardingCardsTypes\\FlightBoardingCard&#45;&gt;\\BoardingCards\\Contracts\\SeatableBoardingCardAttributes</title>
<path fill="none" stroke="black" stroke-dasharray="1,5" d="M523.239,-299C449.799,-297.636 367.429,-298.069 302.131,-298.875"/>
<polygon fill="none" stroke="black" points="301.756,-295.38 291.802,-299.007 301.846,-302.379 301.756,-295.38"/>
</g>
<!-- \\BoardingCards\\BoardingCardsTypes\\FlightBoardingCard&#45;&gt;\\BoardingCards\\Contracts\\GateBoardingCardAttributes -->
<g id="edge12" class="edge"><title>\\BoardingCards\\BoardingCardsTypes\\FlightBoardingCard&#45;&gt;\\BoardingCards\\Contracts\\GateBoardingCardAttributes</title>
<path fill="none" stroke="black" stroke-dasharray="1,5" d="M736.855,-300.327C680.207,-300.462 597.469,-300.341 525.239,-299"/>
<path fill="none" stroke="black" stroke-dasharray="1,5" d="M523.239,-299C434.569,-297.353 425.016,-245.248 340,-220 323.489,-215.097 305.719,-210.981 288.281,-207.56"/>
<polygon fill="none" stroke="black" points="288.541,-204.047 278.064,-205.625 287.239,-210.925 288.541,-204.047"/>
</g>
<!-- \\BoardingCards\\BoardingCardsTypes\\FlightBoardingCard&#45;&gt;\\BoardingCards\\BoardingCardsTypes\\AbstractBoardingCard -->
<g id="edge9" class="edge"><title>\\BoardingCards\\BoardingCardsTypes\\FlightBoardingCard&#45;&gt;\\BoardingCards\\BoardingCardsTypes\\AbstractBoardingCard</title>
<path fill="none" stroke="black" d="M736.904,-313.628C698.731,-321.269 650.769,-330.871 610.156,-339.001"/>
<polygon fill="none" stroke="black" points="609.388,-335.585 600.27,-340.98 610.763,-342.449 609.388,-335.585"/>
</g>
<!-- \\BoardingCards\\BoardingCardsTypes\\BusBoardingCard -->
<g id="node14" class="node"><title>\\BoardingCards\\BoardingCardsTypes\\BusBoardingCard</title>
<polygon fill="none" stroke="black" points="864.979,-426 746.979,-426 746.979,-390 864.979,-390 864.979,-426"/>
<text text-anchor="middle" x="805.979" y="-405.2" font-family="Courier,monospace" font-size="11.00">BusBoardingCard</text>
</g>
<!-- \\BoardingCards\\BoardingCardsTypes\\BusBoardingCard&#45;&gt;\\BoardingCards\\BoardingCardsTypes\\AbstractBoardingCard -->
<g id="edge14" class="edge"><title>\\BoardingCards\\BoardingCardsTypes\\BusBoardingCard&#45;&gt;\\BoardingCards\\BoardingCardsTypes\\AbstractBoardingCard</title>
<path fill="none" stroke="black" d="M746.677,-397.162C707.227,-389.829 654.471,-380.023 610.349,-371.821"/>
<polygon fill="none" stroke="black" points="610.967,-368.376 600.495,-369.989 609.687,-375.258 610.967,-368.376"/>
</g>
<!-- \\BoardingCards\\BoardingCardsTypes\\AbstractBoardingCard&#45;&gt;\\BoardingCards\\Contracts\\GeneralBoardingCardAttributes -->
<g id="edge15" class="edge"><title>\\BoardingCards\\BoardingCardsTypes\\AbstractBoardingCard&#45;&gt;\\BoardingCards\\Contracts\\GeneralBoardingCardAttributes</title>
<path fill="none" stroke="black" stroke-dasharray="1,5" d="M448.151,-355.779C404.211,-355.65 347.817,-355.484 298.343,-355.339"/>
<polygon fill="none" stroke="black" points="298.232,-351.839 288.222,-355.309 298.212,-358.839 298.232,-351.839"/>
</g>
</g>
</svg>
